<svg width="22" height="22" viewBox="0 0 22 22" fill="none" xmlns="http://www.w3.org/2000/svg">
<g clip-path="url(#clip0_0_4419)">
<path d="M14.208 4.94996H16.7747C16.9449 4.94996 17.1081 5.01756 17.2284 5.1379C17.3487 5.25823 17.4163 5.42145 17.4163 5.59163V15.8583C17.4163 16.0285 17.3487 16.1917 17.2284 16.312C17.1081 16.4324 16.9449 16.5 16.7747 16.5H5.22467C5.05449 16.5 4.89128 16.4324 4.77095 16.312C4.65061 16.1917 4.58301 16.0285 4.58301 15.8583V5.59163C4.58301 5.42145 4.65061 5.25823 4.77095 5.1379C4.89128 5.01756 5.05449 4.94996 5.22467 4.94996H7.79134V3.66663H9.07467V4.94996H12.9247V3.66663H14.208V4.94996ZM16.133 10.0833H5.86634V15.2166H16.133V10.0833ZM12.9247 6.23329H9.07467V7.51663H7.79134V6.23329H5.86634V8.79996H16.133V6.23329H14.208V7.51663H12.9247V6.23329ZM7.14967 11.3666H8.43301V12.65H7.14967V11.3666ZM10.358 11.3666H11.6413V12.65H10.358V11.3666ZM13.5663 11.3666H14.8497V12.65H13.5663V11.3666Z" fill="#3F3F3F"/>
</g>
<defs>
<clipPath id="clip0_0_4419">
<rect width="22" height="22" fill="white"/>
</clipPath>
</defs>
</svg>
