<svg width="24" height="24" viewBox="0 0 24 24" fill="none" xmlns="http://www.w3.org/2000/svg">
<path d="M18.6883 9.79257V15.2075C18.6883 16.0942 18.2133 16.9176 17.4454 17.3688L12.7429 20.0842C11.975 20.5276 11.025 20.5276 10.2491 20.0842L5.54663 17.3688C4.77871 16.9255 4.30371 16.1021 4.30371 15.2075V9.79257C4.30371 8.9059 4.77871 8.08254 5.54663 7.63129L10.2491 4.91587C11.017 4.47254 11.967 4.47254 12.7429 4.91587L17.4454 7.63129C18.2133 8.08254 18.6883 8.89798 18.6883 9.79257Z" stroke="#292D32" stroke-width="1.2" stroke-linecap="round" stroke-linejoin="round"/>
<path d="M11.5008 11.7083C12.5196 11.7083 13.3454 10.8824 13.3454 9.86371C13.3454 8.84498 12.5196 8.01917 11.5008 8.01917C10.4821 8.01917 9.65625 8.84498 9.65625 9.86371C9.65625 10.8824 10.4821 11.7083 11.5008 11.7083Z" stroke="#292D32" stroke-width="1.2" stroke-linecap="round" stroke-linejoin="round"/>
<path d="M14.6673 16.1892C14.6673 14.7642 13.2502 13.6084 11.5007 13.6084C9.75107 13.6084 8.33398 14.7642 8.33398 16.1892" stroke="#292D32" stroke-width="1.2" stroke-linecap="round" stroke-linejoin="round"/>
</svg>
