<svg width="24" height="25" viewBox="0 0 24 25" fill="none" xmlns="http://www.w3.org/2000/svg">
<g clip-path="url(#clip0_121_7152)">
<path d="M7.919 17.1863C8.06362 16.7765 8.33182 16.4217 8.68662 16.1707C9.04142 15.9197 9.46536 15.7849 9.9 15.7849C10.3346 15.7849 10.7586 15.9197 11.1134 16.1707C11.4682 16.4217 11.7364 16.7765 11.881 17.1863H19V18.5859H11.881C11.7364 18.9957 11.4682 19.3505 11.1134 19.6015C10.7586 19.8525 10.3346 19.9873 9.9 19.9873C9.46536 19.9873 9.04142 19.8525 8.68662 19.6015C8.33182 19.3505 8.06362 18.9957 7.919 18.5859H5V17.1863H7.919ZM12.119 12.2875C12.2636 11.8777 12.5318 11.5229 12.8866 11.2719C13.2414 11.0209 13.6654 10.8861 14.1 10.8861C14.5346 10.8861 14.9586 11.0209 15.3134 11.2719C15.6682 11.5229 15.9364 11.8777 16.081 12.2875H19V13.6871H16.081C15.9364 14.0969 15.6682 14.4517 15.3134 14.7027C14.9586 14.9537 14.5346 15.0885 14.1 15.0885C13.6654 15.0885 13.2414 14.9537 12.8866 14.7027C12.5318 14.4517 12.2636 14.0969 12.119 13.6871H5V12.2875H12.119ZM7.919 7.38868C8.06362 6.9789 8.33182 6.62407 8.68662 6.37308C9.04142 6.12209 9.46536 5.9873 9.9 5.9873C10.3346 5.9873 10.7586 6.12209 11.1134 6.37308C11.4682 6.62407 11.7364 6.9789 11.881 7.38868H19V8.78833H11.881C11.7364 9.19811 11.4682 9.55294 11.1134 9.80393C10.7586 10.0549 10.3346 10.1897 9.9 10.1897C9.46536 10.1897 9.04142 10.0549 8.68662 9.80393C8.33182 9.55294 8.06362 9.19811 7.919 8.78833H5V7.38868H7.919ZM9.9 8.78833C10.0857 8.78833 10.2637 8.7146 10.395 8.58336C10.5262 8.45212 10.6 8.27411 10.6 8.08851C10.6 7.9029 10.5262 7.7249 10.395 7.59365C10.2637 7.46241 10.0857 7.38868 9.9 7.38868C9.71435 7.38868 9.5363 7.46241 9.40503 7.59365C9.27375 7.7249 9.2 7.9029 9.2 8.08851C9.2 8.27411 9.27375 8.45212 9.40503 8.58336C9.5363 8.7146 9.71435 8.78833 9.9 8.78833ZM14.1 13.6871C14.2857 13.6871 14.4637 13.6134 14.595 13.4822C14.7262 13.3509 14.8 13.1729 14.8 12.9873C14.8 12.8017 14.7262 12.6237 14.595 12.4925C14.4637 12.3612 14.2857 12.2875 14.1 12.2875C13.9143 12.2875 13.7363 12.3612 13.605 12.4925C13.4738 12.6237 13.4 12.8017 13.4 12.9873C13.4 13.1729 13.4738 13.3509 13.605 13.4822C13.7363 13.6134 13.9143 13.6871 14.1 13.6871ZM9.9 18.5859C10.0857 18.5859 10.2637 18.5122 10.395 18.381C10.5262 18.2497 10.6 18.0717 10.6 17.8861C10.6 17.7005 10.5262 17.5225 10.395 17.3913C10.2637 17.26 10.0857 17.1863 9.9 17.1863C9.71435 17.1863 9.5363 17.26 9.40503 17.3913C9.27375 17.5225 9.2 17.7005 9.2 17.8861C9.2 18.0717 9.27375 18.2497 9.40503 18.381C9.5363 18.5122 9.71435 18.5859 9.9 18.5859Z" fill="#272727"/>
</g>
<defs>
<clipPath id="clip0_121_7152">
<rect width="24" height="24" fill="white" transform="translate(0 0.987305)"/>
</clipPath>
</defs>
</svg>
