<svg width="24" height="24" viewBox="0 0 24 24" fill="none" xmlns="http://www.w3.org/2000/svg">
<path d="M17.6133 10.7243L12.4734 5.2071C12.4114 5.14148 12.3377 5.08939 12.2564 5.05385C12.1752 5.0183 12.088 5 12 5C11.912 5 11.8249 5.0183 11.7437 5.05385C11.6624 5.08939 11.5887 5.14148 11.5267 5.2071L6.38674 10.7313C6.26237 10.8629 6.16414 11.0193 6.09776 11.1911C6.03138 11.363 5.99818 11.547 6.00008 11.7325V17.5997C5.99956 17.9581 6.12992 18.3031 6.36432 18.5636C6.59872 18.8241 6.91931 18.9803 7.26007 19H16.74C17.0808 18.9803 17.4014 18.8241 17.6357 18.5636C17.8701 18.3031 18.0005 17.9581 18 17.5997V11.7325C18.0005 11.3564 17.8619 10.9949 17.6133 10.7243ZM10.6667 17.5997V13.3988H13.3334V17.5997H10.6667ZM16.6667 17.5997H14.6667V12.6987C14.6667 12.513 14.5964 12.3349 14.4714 12.2036C14.3464 12.0723 14.1768 11.9985 14 11.9985H10.0001C9.82324 11.9985 9.65367 12.0723 9.52865 12.2036C9.40363 12.3349 9.33339 12.513 9.33339 12.6987V17.5997H7.3334V11.7045L12 6.69842L16.6667 11.7325V17.5997Z" fill="#3F3F3F"/>
</svg>
