<svg width="18" height="18" viewBox="0 0 18 18" fill="none" xmlns="http://www.w3.org/2000/svg">
<path d="M6.75 12H11.25C11.4489 12 11.6397 12.079 11.7803 12.2197C11.921 12.3603 12 12.5511 12 12.75C12 12.9489 11.921 13.1397 11.7803 13.2803C11.6397 13.421 11.4489 13.5 11.25 13.5H6.75C6.55109 13.5 6.36032 13.421 6.21967 13.2803C6.07902 13.1397 6 12.9489 6 12.75C6 12.5511 6.07902 12.3603 6.21967 12.2197C6.36032 12.079 6.55109 12 6.75 12Z" fill="#3F3F3F"/>
<path d="M11.25 10.5H9C8.80109 10.5 8.61032 10.421 8.46967 10.2803C8.32902 10.1397 8.25 9.94891 8.25 9.75C8.25 9.55109 8.32902 9.36032 8.46967 9.21967C8.61032 9.07902 8.80109 9 9 9H11.25C11.4489 9 11.6397 9.07902 11.7803 9.21967C11.921 9.36032 12 9.55109 12 9.75C12 9.94891 11.921 10.1397 11.7803 10.2803C11.6397 10.421 11.4489 10.5 11.25 10.5Z" fill="#3F3F3F"/>
<path d="M3.92062 6.52279L7.49062 2.47287C7.55198 2.40294 7.62688 2.347 7.71052 2.30864C7.79416 2.27028 7.88467 2.25034 7.97625 2.25012H12.57C12.788 2.24745 13.0045 2.28897 13.2069 2.37233C13.4093 2.45569 13.5938 2.57925 13.7498 2.73595C13.9058 2.89265 14.0303 3.07942 14.1161 3.2856C14.2019 3.49178 14.2474 3.71333 14.25 3.93759V14.0624C14.2474 14.2867 14.2019 14.5082 14.1161 14.7144C14.0303 14.9206 13.9058 15.1074 13.7498 15.2641C13.5938 15.4208 13.4093 15.5443 13.2069 15.6277C13.0045 15.711 12.788 15.7526 12.57 15.7499H5.43C5.21196 15.7526 4.99554 15.711 4.79311 15.6277C4.59068 15.5443 4.40619 15.4208 4.25018 15.2641C4.09418 15.1074 3.96971 14.9206 3.88389 14.7144C3.79807 14.5082 3.75257 14.2867 3.75 14.0624V6.97504C3.75042 6.80775 3.81123 6.64659 3.92062 6.52279ZM7.6875 4.27508L5.88937 6.30005H7.20188C7.2706 6.29578 7.33781 6.27748 7.39958 6.24621C7.46135 6.21493 7.51644 6.17132 7.56165 6.11791C7.60686 6.0645 7.64127 6.00237 7.66288 5.93513C7.68448 5.8679 7.69285 5.79691 7.6875 5.72631V4.27508ZM5.43 14.3999H12.57C12.6157 14.4026 12.6615 14.3961 12.7047 14.3806C12.7479 14.3651 12.7877 14.341 12.8219 14.3096C12.856 14.2783 12.8838 14.2403 12.9036 14.1979C12.9235 14.1554 12.935 14.1094 12.9375 14.0624V3.93759C12.935 3.89059 12.9235 3.84455 12.9036 3.80213C12.8838 3.75971 12.856 3.72174 12.8219 3.69038C12.7877 3.65903 12.7479 3.63491 12.7047 3.61942C12.6615 3.60393 12.6157 3.59736 12.57 3.6001H9V5.72631C9.01059 6.22352 8.82954 6.70486 8.49635 7.06526C8.16316 7.42567 7.70489 7.63588 7.22156 7.65002H5.0625V14.0624C5.06501 14.1094 5.07652 14.1554 5.09637 14.1979C5.11621 14.2403 5.144 14.2783 5.17814 14.3096C5.21228 14.341 5.2521 14.3651 5.29532 14.3806C5.33854 14.3961 5.38431 14.4026 5.43 14.3999Z" fill="#3F3F3F"/>
</svg>
